<svg xmlns="http://www.w3.org/2000/svg" xmlns:xlink="http://www.w3.org/1999/xlink">
  <symbol id="icon-alest" viewBox="0 0 75 25" width="75" height="25" fill="none">
    <path d="M6.9951 4.48194C5.54459 6.94895 4.35157 8.9768 4.34299 8.99402C4.3387 9.00694 4.77213 9.01124 5.30856 8.99833L6.28701 8.9768L7.03372 7.6292L7.78043 6.28591H10.66H13.5438L14.3335 7.6249C14.7669 8.36113 15.1446 8.9725 15.1703 8.98111C15.196 8.99402 15.6638 8.99402 16.2088 8.98972L17.2002 8.9768L14.4021 4.49916L11.6041 0.0215282L10.6214 0.00861168L9.63434 9.53674e-07L6.9951 4.48194ZM10.8703 1.57578C11.0291 1.89869 11.5526 2.84158 12.0375 3.67683C12.5182 4.51208 12.9259 5.22678 12.943 5.26553C12.9688 5.33442 12.8143 5.33872 10.6428 5.33872C8.44561 5.33872 8.31687 5.33442 8.34261 5.26122C8.35978 5.22247 8.72026 4.58527 9.14511 3.84905C9.95191 2.44548 10.2137 1.92022 10.4154 1.33899C10.4798 1.14955 10.5441 0.990248 10.557 0.990248C10.5699 0.990248 10.7072 1.25718 10.8703 1.57578Z" fill="#0064B0"/>
    <path d="M34.0268 7.74975C33.3273 7.8703 32.5806 8.1889 32.233 8.52042C32.0356 8.70555 31.8682 9.02416 29.8684 13.0669C26.9846 18.8965 26.7314 19.4217 26.7271 19.5897C26.7185 19.9083 27.0704 19.9728 27.7442 19.7791C28.5467 19.5466 29.4092 19.0386 29.5895 18.6812C29.6281 18.6123 29.6839 18.3023 29.7182 17.988C29.7826 17.4154 29.8684 17.0839 30.0658 16.6361L30.1688 16.4036L32.1043 16.4123L34.044 16.4252L34.1856 17.071C34.4817 18.4057 34.7864 19.1849 35.1598 19.5681C35.5031 19.9212 35.6962 19.9427 36.5116 19.7188C37.0051 19.5854 37.8419 19.1634 38.035 18.9482C38.2582 18.7027 38.2453 18.608 37.9406 18.2162C37.6102 17.7814 37.5201 17.5919 37.2368 16.7266C36.5888 14.7374 35.8035 11.4395 35.4087 9.05429C35.3143 8.47737 35.2156 7.96933 35.1898 7.92197C35.1083 7.77128 34.9194 7.7067 34.559 7.711C34.3744 7.71531 34.1341 7.73253 34.0268 7.74975ZM33.2844 12.757L33.7136 14.8322L32.3231 14.8451C31.555 14.8494 30.9198 14.8494 30.9155 14.8408C30.8941 14.8193 32.7995 10.6817 32.8295 10.6774C32.8424 10.6774 33.0441 11.6117 33.2844 12.757Z" fill="#0064B0"/>
    <path d="M40.4083 7.88753C40.3611 8.23627 39.4856 16.5974 39.4169 17.3508C39.2796 18.9611 39.374 19.6112 39.786 19.8135C39.9233 19.8824 39.9963 19.8867 40.8331 19.8265C42.4767 19.7145 43.3951 19.6758 44.5881 19.6758C45.9228 19.6758 46 19.6585 46.2532 19.3486C46.5794 18.9525 46.9055 18.1086 46.9055 17.6565C46.9055 17.3853 46.7982 17.1786 46.6566 17.1786C46.618 17.1786 45.6224 17.3982 44.4508 17.6651L42.318 18.1517L42.2879 17.9794C42.2064 17.5058 42.2707 16.6706 42.6827 13.0024C43.1333 8.95097 43.172 8.37835 43.0218 8.07266C42.9617 7.95211 42.8801 7.87031 42.7428 7.80142C42.5626 7.71101 42.5068 7.7067 41.494 7.7067H40.434L40.4083 7.88753Z" fill="#0064B0"/>
    <path d="M61.0029 7.73684C60.1661 7.83586 59.5438 8.01669 58.943 8.32238C58.5911 8.50751 58.4409 8.61514 58.1233 8.93374C57.8015 9.25235 57.6985 9.38581 57.5526 9.68719C57.338 10.1307 57.2479 10.5268 57.2479 11.0434C57.2479 11.8012 57.4496 12.3566 57.9602 12.9981C58.3379 13.4674 58.8228 13.8591 60.1017 14.7245C61.2947 15.534 61.5736 15.7751 61.7711 16.1884C61.8912 16.4424 61.9041 16.507 61.9041 16.8988C61.9041 17.381 61.844 17.5489 61.5565 17.8632C61.3162 18.1301 61.0501 18.2248 60.4407 18.2464C59.5266 18.2808 59.0374 18.0871 57.8315 17.2217C57.5054 16.9892 57.1792 16.7825 57.1105 16.7696C56.7029 16.6792 56.4325 17.1786 56.4325 18.0182C56.4325 18.4659 56.5226 18.7243 56.7844 19.0084C57.3294 19.6112 58.6555 19.9384 60.2948 19.8781C62.7752 19.7877 64.3373 18.8276 64.8094 17.1097C64.8823 16.8299 64.8995 16.6534 64.9038 16.1023C64.9038 15.323 64.8394 15.0044 64.5948 14.5351C64.23 13.8376 63.6035 13.3597 61.844 12.4384C60.6553 11.8141 60.3763 11.6074 60.1789 11.2199C60.033 10.9315 60.003 10.5569 60.0974 10.2254C60.1575 10.0273 60.2218 9.92399 60.4192 9.72594C60.754 9.39442 60.9857 9.32123 61.6251 9.35568C62.2259 9.38581 62.698 9.52789 63.4619 9.90677C64.1142 10.234 64.2 10.2469 64.3717 10.0661C64.5133 9.91108 64.6377 9.51928 64.6592 9.14471C64.6935 8.67111 64.6549 8.51181 64.4704 8.30515C64.2 8.00808 63.7666 7.84878 62.9555 7.74975C62.6208 7.71101 61.299 7.69809 61.0029 7.73684Z" fill="#0064B0"/>
    <path d="M54.9305 7.84017C54.3039 7.91336 53.7546 7.93058 51.596 7.9478L49.0168 7.97363L48.9911 8.17599C48.9568 8.4257 48.1285 16.6706 48.0641 17.3939C48.0341 17.691 48.0126 18.1818 48.0084 18.4918C48.0041 19.1591 48.077 19.4648 48.3002 19.7102L48.4461 19.8695L48.8881 19.8566C49.1327 19.8523 49.7164 19.8178 50.1884 19.7791C50.6605 19.7403 51.832 19.6973 52.789 19.6844C54.5228 19.6542 54.5314 19.6542 54.6773 19.5509C55.1064 19.2581 55.5484 18.2894 55.5527 17.6393C55.5527 17.3767 55.5398 17.3336 55.4454 17.2561C55.3167 17.1528 55.5184 17.1183 53.0637 17.6781C51.9779 17.9235 51.0553 18.1258 51.021 18.1258C50.9652 18.1258 50.948 18.0483 50.9222 17.7383C50.9051 17.5231 50.9051 17.2002 50.918 17.015C50.9523 16.5759 51.154 14.5997 51.1754 14.4834C51.1969 14.393 51.2226 14.3887 51.9565 14.3672C52.789 14.3457 53.0551 14.294 53.4971 14.0787C53.982 13.8419 54.364 13.4674 54.4541 13.1401C54.5099 12.955 54.4369 12.7182 54.3039 12.6278C54.1837 12.5503 54.0078 12.5589 52.8276 12.6795C52.1711 12.744 51.3686 12.7656 51.3686 12.7139C51.3686 12.6235 51.7205 9.45039 51.7333 9.43748C51.7462 9.42026 54.1494 9.84649 54.3726 9.90246C54.4541 9.92399 54.6944 9.97135 54.9004 10.0058C55.3424 10.0833 55.4798 10.0488 55.6772 9.81635C56.0591 9.35567 56.4325 8.18029 56.2694 7.93919C56.1535 7.76267 55.836 7.74114 54.9305 7.84017Z" fill="#0064B0"/>
    <path d="M74.2206 7.81434C74.1991 7.82295 73.6798 7.8617 73.0748 7.90044C72.2765 7.9478 71.1865 7.96502 69.1652 7.96502C66.3887 7.96502 66.3544 7.96502 66.2428 8.05544C66.0025 8.24488 65.7836 8.76153 65.7106 9.29971C65.6248 9.90677 65.7707 10.2038 66.1441 10.2038C66.2428 10.2038 66.8822 10.0661 67.5602 9.89816C68.2383 9.73025 68.8048 9.60108 68.8134 9.6097C68.8305 9.62692 68.2898 14.4619 67.9765 17.1571C67.8564 18.1732 67.8692 18.9869 68.0151 19.3141C68.0666 19.439 68.1696 19.594 68.2383 19.6585L68.367 19.7834L69.4614 19.7963C70.3497 19.8049 70.5514 19.7963 70.5514 19.7533C70.5514 19.5983 71.6715 9.62692 71.6886 9.6097C71.7144 9.58386 72.5555 9.72164 73.5082 9.91107C74.2764 10.0618 74.3021 10.0575 74.5124 9.72164C74.933 9.0586 75.1475 7.97794 74.8857 7.83586C74.8085 7.79711 74.315 7.77989 74.2206 7.81434Z" fill="#0064B0"/>
    <path d="M13.0332 9.28679C13.016 9.29971 13.0031 9.54512 13.0031 9.82497V10.333H14.4837H15.9642V14.3155V18.298H16.565H17.1658V14.3155V10.333H18.6464H20.1269V9.79483V9.25665H16.5951C14.651 9.25665 13.046 9.26957 13.0332 9.28679Z" fill="#0064B0"/>
    <path d="M4.33435 13.8419V18.3411H7.14525H9.95614V17.8029V17.2647H7.74605H5.53595V13.3037V9.34276H4.93515H4.33435V13.8419Z" fill="#0064B0"/>
    <path d="M12.2435 10.9142C11.3165 11.1726 10.7758 11.9002 10.823 12.8258C10.8659 13.6912 11.265 14.0959 13.1146 15.1508C14.0244 15.6674 14.2776 15.8698 14.4578 16.24C14.6939 16.7093 14.5952 17.2002 14.1918 17.5446C13.6854 17.9794 12.6726 17.9923 12.0074 17.5704C11.5354 17.269 11.3036 16.9203 11.1363 16.2573C11.0547 15.9301 11.0247 15.8612 10.9474 15.8526C10.8573 15.8396 10.8573 15.8396 10.8573 17.071C10.8573 18.3023 10.8573 18.3023 10.9474 18.2894C11.0075 18.2808 11.0547 18.2248 11.0891 18.1258C11.1148 18.044 11.1878 17.9493 11.2478 17.9149C11.3465 17.8589 11.4066 17.8675 11.9602 18.0354C12.7241 18.2636 13.0245 18.311 13.4579 18.2808C14.342 18.2162 15.02 17.7771 15.3505 17.0624C15.5779 16.5629 15.565 16.0291 15.3118 15.4995C15.0715 15.0044 14.7454 14.7461 13.4408 14.0184C11.9688 13.2004 11.6298 12.8861 11.6298 12.335C11.6298 11.8012 12.1018 11.3405 12.7241 11.2587C13.209 11.1941 13.8442 11.4309 14.239 11.827C14.5136 12.0982 14.6982 12.4771 14.7969 12.955C14.8612 13.2693 14.8784 13.3037 14.9642 13.3037H15.0629V12.0767V10.8497H14.9642C14.8827 10.8497 14.8441 10.8884 14.7926 11.0219C14.6853 11.3017 14.5823 11.3017 13.797 11.0176C13.4665 10.897 13.3421 10.8755 12.9387 10.8626C12.6168 10.854 12.3979 10.8712 12.2435 10.9142Z" fill="#0064B0"/>
    <path d="M6.09387 11.7968C6.09387 11.8184 6.17112 11.8399 6.26553 11.8399C6.39427 11.8399 6.46723 11.87 6.54447 11.9475L6.65176 12.0509V13.7472V15.4435L6.54877 15.5383C6.49298 15.5942 6.36852 15.6459 6.26982 15.6588C6.17112 15.6717 6.09387 15.7019 6.09387 15.7191C6.09387 15.7406 6.77192 15.7535 7.64737 15.7492L9.19659 15.7363L9.35966 15.2498C9.54848 14.6858 9.50986 14.6341 9.21804 15.069C8.93052 15.4952 8.81465 15.5426 8.00356 15.5426C7.44568 15.5426 7.33839 15.534 7.29118 15.4694C7.24398 15.4177 7.2311 15.211 7.2311 14.5782V13.7558L7.53151 13.7429C7.69887 13.7343 7.97352 13.7429 8.14947 13.7558C8.5357 13.7903 8.68161 13.9022 8.72453 14.1993C8.74169 14.2983 8.77602 14.3801 8.79748 14.3801C8.82323 14.3801 8.8404 14.1089 8.8404 13.6697C8.8404 13.2262 8.82323 12.9593 8.79748 12.9593C8.77602 12.9593 8.75457 12.9938 8.75457 13.0325C8.75457 13.0756 8.71594 13.1918 8.67303 13.2908C8.56574 13.5233 8.43271 13.5621 7.73749 13.5621H7.20965V12.7742C7.20965 12.3393 7.21823 11.9734 7.22681 11.9648C7.2354 11.9561 7.59588 11.9561 8.02502 11.9691L8.80606 11.9906L8.92622 12.1241C8.99489 12.2016 9.05926 12.3393 9.07643 12.4384C9.09359 12.5546 9.12792 12.6149 9.17084 12.6149C9.23092 12.6149 9.23521 12.5718 9.21375 12.3221C9.19659 12.1628 9.18371 11.9691 9.18371 11.8916V11.7538H7.63879C6.63889 11.7538 6.09387 11.771 6.09387 11.7968Z" fill="#0064B0"/>
    <path d="M0.193115 18.9912C0.0128743 19.0945 0 19.1462 0 19.9212C0 20.6057 0.00858289 20.6746 0.0858289 20.7521C0.133035 20.7995 0.214572 20.8468 0.26607 20.8598C0.321858 20.8727 1.4548 20.877 2.78086 20.8727L5.20123 20.8598L5.28277 20.7564C5.35572 20.666 5.36431 20.5799 5.36431 19.9126C5.36431 19.2452 5.35572 19.1591 5.28277 19.0687L5.20123 18.9654L2.73794 18.9568C1.0042 18.9482 0.253195 18.9611 0.193115 18.9912ZM5.09824 19.185C5.18836 19.2495 5.19265 19.2754 5.19265 19.9126C5.19265 20.5498 5.18836 20.5756 5.09824 20.6402C5.01241 20.7005 4.71201 20.7091 2.69074 20.7091C1.18015 20.7091 0.351898 20.6918 0.29611 20.666C0.218864 20.623 0.214572 20.567 0.214572 19.9126C0.214572 19.284 0.223155 19.2022 0.291818 19.1634C0.339024 19.1333 1.18873 19.1204 2.68215 19.1161C4.71201 19.1161 5.01241 19.1247 5.09824 19.185Z" fill="#0064B0"/>
    <path d="M5.59172 19.0472L5.47156 19.1505V19.9126V20.6746L5.59172 20.778L5.71188 20.8813H8.15371H10.5955L10.7157 20.778L10.8359 20.6746V19.9126V19.1505L10.7157 19.0472L10.5955 18.9438H8.15371H5.71188L5.59172 19.0472ZM10.5612 19.1591C10.6385 19.2022 10.6427 19.2581 10.6427 19.9126C10.6427 20.567 10.6385 20.623 10.5612 20.666C10.5054 20.6918 9.67288 20.7091 8.15371 20.7091C6.63454 20.7091 5.802 20.6918 5.74621 20.666C5.66896 20.623 5.66467 20.567 5.66467 19.9126C5.66467 19.284 5.67326 19.2022 5.74192 19.1634C5.84491 19.1031 10.4453 19.0988 10.5612 19.1591Z" fill="#0064B0"/>
    <path d="M11.1277 18.9869C10.9646 19.0515 10.9432 19.1634 10.9432 19.9255C10.9432 20.5799 10.9518 20.666 11.0247 20.7564L11.1063 20.8598L13.5266 20.8727C14.8527 20.877 15.9856 20.8727 16.0414 20.8598C16.0929 20.8468 16.1744 20.7995 16.2217 20.7521C16.2989 20.6746 16.3075 20.6057 16.3075 19.9384C16.3075 19.538 16.2946 19.1763 16.2817 19.1376C16.2088 18.9482 16.1444 18.9438 13.6167 18.9482C12.2993 18.9482 11.1792 18.9654 11.1277 18.9869ZM16.0114 19.1591C16.0886 19.2022 16.0929 19.2581 16.0929 19.9126C16.0929 20.567 16.0886 20.623 16.0114 20.666C15.9556 20.6918 15.1273 20.7091 13.6167 20.7091C11.5955 20.7091 11.2951 20.7005 11.2092 20.6402C11.1191 20.5756 11.1148 20.5498 11.1148 19.9126C11.1148 19.2754 11.1191 19.2495 11.2092 19.185C11.2951 19.1247 11.5955 19.1161 13.6167 19.1161C15.1273 19.1161 15.9556 19.1333 16.0114 19.1591Z" fill="#0064B0"/>
    <path d="M16.5178 19.0687L16.3933 19.1936V19.9126V20.6316L16.5178 20.7564L16.6422 20.8813H19.0926H21.5388L21.6589 20.778L21.7791 20.6746V19.9126V19.1505L21.6589 19.0472L21.5388 18.9438H19.0926H16.6422L16.5178 19.0687ZM21.5173 19.185C21.616 19.284 21.616 20.5412 21.5173 20.6402C21.4572 20.7005 21.1826 20.7091 19.1141 20.7091C17.582 20.7091 16.7452 20.6918 16.6894 20.666C16.6122 20.623 16.6079 20.567 16.6079 19.9126C16.6079 19.284 16.6165 19.2022 16.6851 19.1634C16.7323 19.1333 17.5906 19.1204 19.1055 19.1161C21.1826 19.1161 21.4572 19.1247 21.5173 19.185Z" fill="#0064B0"/>
    <path d="M3.04698 21.0535C2.92252 21.1784 2.90965 21.2774 2.92681 22.0179C2.93969 22.6723 2.94398 22.7025 3.04268 22.78C3.1371 22.8575 3.24438 22.8618 5.62184 22.8618C7.9993 22.8618 8.10659 22.8575 8.201 22.78C8.2997 22.7025 8.30399 22.6723 8.31687 22.0179C8.33403 21.2774 8.32116 21.1784 8.19671 21.0535C8.11517 20.9717 8.04222 20.9674 5.62184 20.9674C3.20147 20.9674 3.12851 20.9717 3.04698 21.0535ZM8.05938 21.1913C8.09371 21.2257 8.11088 21.4496 8.11088 21.9146C8.11088 22.3796 8.09371 22.6035 8.05938 22.6379C7.98643 22.7111 3.25726 22.7111 3.1843 22.6379C3.11135 22.5647 3.11135 21.2645 3.1843 21.1913C3.25726 21.1181 7.98643 21.1181 8.05938 21.1913Z" fill="#0064B0"/>
    <path d="M8.50561 21.0664C8.41549 21.1611 8.41119 21.2042 8.41119 21.9189C8.41119 22.6551 8.41549 22.6766 8.5099 22.7671L8.6086 22.8618H11.1019H13.5995L13.6854 22.7498C13.7669 22.6422 13.7755 22.5776 13.7755 21.906C13.7755 21.1913 13.7755 21.1784 13.6682 21.075L13.5652 20.9674H11.0805H8.59573L8.50561 21.0664ZM13.5137 21.1999C13.5481 21.2386 13.5609 21.4797 13.5523 21.9619L13.5395 22.668L11.1148 22.681C8.87467 22.6896 8.68585 22.6853 8.63864 22.6164C8.56998 22.526 8.56139 21.3463 8.62577 21.2214C8.66868 21.1439 8.74164 21.1396 11.0676 21.1396C13.0545 21.1396 13.4751 21.1482 13.5137 21.1999Z" fill="#0064B0"/>
    <path d="M13.9686 21.075C13.8613 21.1784 13.8613 21.1913 13.8613 21.906C13.8613 22.5776 13.8699 22.6422 13.9514 22.7498L14.0373 22.8618H16.5478C18.9982 22.8618 19.054 22.8618 19.1398 22.7757C19.2213 22.6939 19.2256 22.6336 19.2256 21.9232C19.2256 21.1741 19.2213 21.1525 19.1269 21.0621L19.0282 20.9674H16.5478H14.0716L13.9686 21.075ZM19.0025 21.1913C19.0797 21.2688 19.0754 22.5776 18.9939 22.6422C18.9553 22.6766 18.2686 22.6853 16.5177 22.681L14.0974 22.668L14.0845 21.9619C14.0759 21.4797 14.0888 21.2386 14.1231 21.1999C14.1918 21.1181 18.9209 21.1095 19.0025 21.1913Z" fill="#0064B0"/>
    <path d="M19.4359 21.0793C19.3372 21.1827 19.3329 21.2257 19.3201 21.794C19.3029 22.4786 19.3244 22.6594 19.4445 22.78C19.5218 22.8575 19.6076 22.8618 22.0323 22.8618H24.5428L24.6329 22.7455C24.7187 22.6336 24.723 22.5905 24.7101 21.8801C24.6973 21.1525 24.693 21.131 24.5943 21.0492C24.4998 20.9717 24.3926 20.9674 22.0194 20.9674H19.5389L19.4359 21.0793ZM24.4526 21.1913C24.5084 21.2472 24.5299 22.4872 24.4784 22.6207C24.4526 22.681 24.1994 22.6896 22.0408 22.6896C20.2213 22.6896 19.6162 22.6766 19.5776 22.6379C19.5432 22.6035 19.5261 22.3796 19.5261 21.9146C19.5261 21.4496 19.5432 21.2257 19.5776 21.1913C19.6505 21.1181 24.3797 21.1181 24.4526 21.1913Z" fill="#0064B0"/>
    <path d="M0.231738 22.9909C0.0257487 23.0728 0 23.1761 0 23.9511C0 24.6615 0 24.6744 0.107286 24.7777L0.210281 24.8853H2.68215H5.15402L5.25702 24.7777C5.36431 24.6744 5.36431 24.6615 5.36431 23.9381C5.36431 23.5334 5.34714 23.1632 5.32139 23.1201C5.29993 23.0771 5.2184 23.0211 5.14544 22.9953C4.97808 22.9393 0.373356 22.935 0.231738 22.9909ZM5.14115 23.2148C5.17548 23.2493 5.19265 23.4688 5.19265 23.9209C5.19265 24.4591 5.17977 24.5883 5.12398 24.6442C5.0639 24.7045 4.78496 24.7131 2.68644 24.7131C0.901203 24.7131 0.304693 24.7002 0.26607 24.6615C0.210281 24.6055 0.188824 23.245 0.244612 23.1933C0.257487 23.1761 1.3561 23.1632 2.68215 23.1632C4.49743 23.1632 5.10253 23.1761 5.14115 23.2148Z" fill="#0064B0"/>
    <path d="M5.72474 22.978C5.67325 22.9866 5.596 23.034 5.55309 23.0857C5.48013 23.1589 5.47155 23.2622 5.45868 23.8908L5.4458 24.6141L5.55738 24.7476L5.67325 24.8853H8.14941C10.5784 24.8853 10.6299 24.8853 10.72 24.7992C10.853 24.6744 10.8659 24.5883 10.8487 23.8391C10.8359 23.2062 10.8316 23.1589 10.7372 23.0684L10.6384 22.9694L8.22666 22.9651C6.9006 22.9608 5.77195 22.9651 5.72474 22.978ZM10.617 23.232C10.6685 23.3655 10.647 24.6055 10.5912 24.6614C10.5183 24.7346 5.78912 24.7346 5.71616 24.6614C5.68183 24.627 5.66466 24.4031 5.66466 23.9381C5.66466 23.4732 5.68183 23.2493 5.71616 23.2148C5.75478 23.1761 6.35988 23.1632 8.17945 23.1632C10.338 23.1632 10.5912 23.1718 10.617 23.232Z" fill="#0064B0"/>
    <path d="M11.132 23.0082C11.059 23.0426 10.9861 23.0986 10.9689 23.1416C10.9561 23.1804 10.9432 23.542 10.9432 23.9424C10.9432 24.6614 10.9432 24.6744 11.0505 24.7777L11.1535 24.8853H13.6253H16.0972L16.2002 24.7777C16.3075 24.6744 16.3075 24.6614 16.3075 23.9424C16.3075 23.232 16.3032 23.2062 16.2045 23.09L16.1015 22.9694L13.6811 22.9608C11.7199 22.9522 11.2393 22.9608 11.132 23.0082ZM16.0843 23.8908C16.0929 24.373 16.08 24.6141 16.0457 24.6528C16.0071 24.7045 15.5908 24.7131 13.621 24.7131C11.5225 24.7131 11.2436 24.7045 11.1835 24.6442C11.1277 24.5883 11.1148 24.4591 11.1148 23.9209C11.1148 23.4688 11.132 23.2493 11.1663 23.2148C11.205 23.1761 11.7929 23.1632 13.6468 23.1718L16.0715 23.1847L16.0843 23.8908Z" fill="#0064B0"/>
    <path d="M16.625 22.9909C16.4191 23.0727 16.3933 23.1761 16.3933 23.908C16.3933 24.6141 16.4319 24.7992 16.5864 24.8595C16.625 24.8724 17.758 24.8853 19.0969 24.8853H21.5388L21.6589 24.782C21.7791 24.6787 21.7791 24.6744 21.7919 24.0587C21.8005 23.6798 21.7877 23.3655 21.7576 23.2536C21.6761 22.9393 21.7404 22.9479 19.0669 22.9522C17.7752 22.9522 16.6723 22.9694 16.625 22.9909ZM21.5345 23.2148C21.5688 23.2493 21.586 23.4732 21.586 23.9381C21.586 24.4031 21.5688 24.627 21.5345 24.6614C21.4615 24.7346 16.7323 24.7346 16.6594 24.6614C16.6036 24.6055 16.5821 23.245 16.6379 23.1933C16.6508 23.1761 17.7494 23.1632 19.0755 23.1632C20.8907 23.1632 21.4958 23.1761 21.5345 23.2148Z" fill="#0064B0"/>
  </symbol>
 
  <symbol id="burger-open" viewBox="0 0 24 24" width="24" height="24" fill="none">
    <path fill-rule="evenodd" clip-rule="evenodd" d="M2.39998 4.8C1.95815 4.8 1.59998 5.15818 1.59998 5.6C1.59998 6.04182 1.95815 6.4 2.39998 6.4H21.6C22.0417 6.4 22.4 6.04182 22.4 5.6C22.4 5.15818 22.0417 4.8 21.6 4.8H2.39998ZM1.59998 12C1.59998 11.5582 1.95815 11.2 2.39998 11.2H21.6C22.0417 11.2 22.4 11.5582 22.4 12C22.4 12.4418 22.0417 12.8 21.6 12.8H2.39998C1.95815 12.8 1.59998 12.4418 1.59998 12ZM1.59998 18.4C1.59998 17.9582 1.95815 17.6 2.39998 17.6H21.6C22.0417 17.6 22.4 17.9582 22.4 18.4C22.4 18.8418 22.0417 19.2 21.6 19.2H2.39998C1.95815 19.2 1.59998 18.8418 1.59998 18.4Z" fill="#ffffffc8"/>
  </symbol>

  <symbol id="burger-close" viewBox="0 0 24 24" width="24" height="24" fill="none">
    <path d="M19.071 4.92893L4.92891 19.0711" stroke="#ffffffc8" stroke-width="2" stroke-linecap="round"/>
    <path d="M19.071 19.0711L4.92891 4.92893" stroke="#ffffffc8" stroke-width="2" stroke-linecap="round"/>
  </symbol>
 
  <symbol id="icon-tel" viewBox="0 0 20 20" width="20" height="20">
    <path d="M11.9604 2.29175C15.0446 2.63425 17.4813 5.06758 17.8279 8.15175" stroke-width="1.5" stroke-linecap="round" stroke-linejoin="round"/>
    <path d="M11.9604 5.24425C13.4363 5.53092 14.5896 6.68508 14.8771 8.16092" stroke-width="1.5" stroke-linecap="round" stroke-linejoin="round"/>
    <path fill-rule="evenodd" clip-rule="evenodd" d="M6.41703 13.5825C0.668712 7.83352 1.48611 5.20096 2.09208 4.35263C2.16993 4.21552 4.08869 1.34323 6.14545 3.02839C11.2506 7.23288 4.78755 6.63843 9.07446 10.9261C13.3623 15.2128 12.7669 8.74996 16.9715 13.8541C18.6568 15.9117 15.7844 17.8303 15.6481 17.9073C14.7998 18.5141 12.1662 19.3315 6.41703 13.5825Z" stroke-width="1.5" stroke-linecap="round" stroke-linejoin="round"/>
  </symbol>

  <symbol id="icon-mail" viewBox="0 0 20 20" width="20" height="20">
    <path d="M18.1242 4.3601C18.124 4.34855 18.1234 4.33701 18.1225 4.32549C18.1218 4.31608 18.1208 4.30674 18.1197 4.29747C18.1184 4.28667 18.1167 4.27593 18.1148 4.26519C18.1131 4.25551 18.1112 4.24589 18.1091 4.23637C18.1067 4.22619 18.1041 4.2161 18.1012 4.20603C18.0985 4.1964 18.0957 4.18686 18.0926 4.17743C18.0893 4.16759 18.0857 4.1579 18.0819 4.14822C18.0783 4.13895 18.0746 4.12977 18.0706 4.12075C18.0663 4.11121 18.0617 4.10185 18.057 4.0925C18.0525 4.08363 18.0479 4.07486 18.043 4.06624C18.0379 4.05733 18.0325 4.04858 18.027 4.03986C18.0214 4.03107 18.0156 4.02244 18.0096 4.01396C18.0039 4.00597 17.998 3.99813 17.9919 3.99034C17.9851 3.98159 17.978 3.97308 17.9707 3.96471C17.9673 3.96076 17.9643 3.95656 17.9607 3.95268C17.9577 3.9494 17.9544 3.94661 17.9513 3.94341C17.9438 3.93551 17.936 3.92794 17.928 3.92044C17.9207 3.9135 17.9133 3.90662 17.9057 3.90007C17.8981 3.89367 17.8904 3.8876 17.8826 3.88153C17.874 3.87489 17.8655 3.86832 17.8567 3.86219C17.8491 3.85687 17.8412 3.85193 17.8333 3.84695C17.824 3.84108 17.8147 3.83522 17.8052 3.82988C17.7969 3.82523 17.7884 3.82101 17.7798 3.81674C17.7704 3.81203 17.7611 3.80728 17.7515 3.80307C17.7421 3.79895 17.7325 3.79536 17.723 3.7917C17.7138 3.78819 17.7046 3.78463 17.6953 3.78157C17.6852 3.77824 17.6749 3.77545 17.6646 3.77263C17.6553 3.77011 17.6461 3.76757 17.6368 3.76549C17.6265 3.76319 17.616 3.76138 17.6056 3.75958C17.5957 3.7579 17.5858 3.75626 17.5758 3.75506C17.566 3.75386 17.556 3.75306 17.546 3.75233C17.5351 3.75153 17.5241 3.7509 17.5132 3.75067C17.5088 3.75057 17.5045 3.75 17.5 3.75H2.5C2.4958 3.75 2.49176 3.75055 2.48756 3.75063C2.47604 3.75086 2.46452 3.75151 2.45304 3.75236C2.44354 3.75309 2.43412 3.75383 2.42477 3.75496C2.41428 3.75622 2.40387 3.75793 2.39342 3.75975C2.38346 3.76147 2.3735 3.76316 2.36374 3.76535C2.3539 3.76755 2.34421 3.77022 2.33444 3.77289C2.3246 3.7756 2.31476 3.77825 2.30511 3.78141C2.29534 3.78462 2.28573 3.78834 2.27608 3.79204C2.26696 3.79555 2.2578 3.79898 2.24888 3.80289C2.23892 3.80726 2.22919 3.81218 2.21942 3.8171C2.21122 3.82122 2.20302 3.82525 2.19505 3.82971C2.18528 3.83518 2.17575 3.84119 2.16621 3.84724C2.15858 3.85208 2.15088 3.85689 2.14348 3.86206C2.13451 3.86828 2.12585 3.87495 2.11719 3.8817C2.10949 3.88767 2.10186 3.89366 2.09446 3.89999C2.08675 3.90657 2.07931 3.9135 2.07184 3.92054C2.06394 3.92798 2.0562 3.93553 2.04868 3.94337C2.04563 3.94659 2.04228 3.9494 2.03926 3.95268C2.03571 3.95657 2.03274 3.96076 2.0293 3.96471C2.02202 3.97308 2.01492 3.98159 2.00805 3.99034C2.00199 3.99812 1.99608 4.00597 1.99043 4.01395C1.9844 4.02244 1.97864 4.03106 1.97304 4.03986C1.9675 4.04857 1.96213 4.05733 1.95701 4.06624C1.95213 4.07486 1.94752 4.08363 1.94301 4.0925C1.93828 4.10185 1.93367 4.11121 1.9294 4.12075C1.92539 4.12977 1.92169 4.13894 1.9181 4.14821C1.91433 4.1579 1.91067 4.16759 1.90739 4.17743C1.90426 4.18685 1.90147 4.19639 1.89876 4.20603C1.89594 4.2161 1.89327 4.22619 1.89094 4.23637C1.88881 4.24589 1.88694 4.2555 1.88522 4.26519C1.88331 4.27593 1.88164 4.28667 1.8803 4.29746C1.87915 4.30675 1.87823 4.31609 1.87752 4.32548C1.8766 4.33702 1.87602 4.34856 1.87576 4.3601C1.87565 4.3651 1.875 4.36996 1.875 4.375V15C1.87538 15.3314 2.0072 15.6491 2.24154 15.8835C2.47587 16.1178 2.7936 16.2496 3.125 16.25H16.875C17.2064 16.2496 17.5241 16.1178 17.7585 15.8835C17.9928 15.6491 18.1246 15.3314 18.125 15V4.375C18.125 4.36996 18.1244 4.3651 18.1242 4.3601ZM3.125 5.7958L7.71141 10L3.125 14.2042V5.7958ZM4.10683 15L8.6364 10.8479L9.57764 11.7107C9.69292 11.8164 9.84362 11.875 10 11.875C10.1564 11.875 10.3071 11.8164 10.4224 11.7107L11.3636 10.8479L15.8932 15H4.10683ZM12.2886 10L16.8751 5.79569L16.8757 14.2048L12.2886 10Z"/>
  </symbol>

  <symbol id="icon-viber" viewBox="0 0 20 20" width="20" height="20" fill="none">
    <path d="M15.5657 20H4.43425C1.98529 20 0 18.0148 0 15.5657V4.43426C0 1.9853 1.98523 0 4.43425 0H15.5658C18.0147 0 20 1.98524 20 4.43426V15.5658C19.9999 18.0148 18.0147 20 15.5657 20Z" fill="#6E64C3"/>
    <path d="M8.61399 8.22493C8.76726 8.11235 8.86921 7.9433 8.89742 7.75518C8.92562 7.56712 8.87754 7.37558 8.76397 7.22312L8.01073 6.21112C7.92232 6.09233 7.78974 6.01442 7.64299 5.99491C7.49625 5.9754 7.3477 6.01585 7.23139 6.10736C7.09254 6.21665 6.93703 6.33867 6.78991 6.45323C6.42777 6.73529 6.29109 7.21902 6.45138 7.64913C7.33546 10.0215 9.19408 11.903 11.5511 12.8174C12.0359 13.0054 12.5861 12.8109 12.8435 12.3592L13.1329 11.8512C13.2751 11.6016 13.2007 11.2846 12.9623 11.1244L12.0405 10.5051C11.8794 10.3969 11.6812 10.359 11.4916 10.3999C11.3019 10.4408 11.1366 10.5571 11.0346 10.7222C11.0044 10.7709 10.9753 10.8183 10.9481 10.8623C10.9101 10.9239 10.8489 10.9675 10.7783 10.9832C10.7077 10.9989 10.6337 10.9855 10.5732 10.9458C9.68949 10.3671 8.93451 9.61088 8.3574 8.72599C8.27912 8.60596 8.30913 8.44548 8.42562 8.36198C8.48365 8.32029 8.54801 8.27339 8.61399 8.22493Z" fill="white"/>
    <path d="M13.4433 9.53116C13.2911 9.53116 13.1677 9.40771 13.1677 9.25556C13.1677 7.44142 11.6918 5.96551 9.87765 5.96551C9.72544 5.96551 9.60205 5.84206 9.60205 5.68991C9.60205 5.53769 9.7255 5.41431 9.87765 5.41431C11.9957 5.41431 13.7189 7.13755 13.7189 9.25556C13.7189 9.40777 13.5955 9.53116 13.4433 9.53116Z" fill="white"/>
    <path d="M12.5797 9.53134C12.4275 9.53134 12.3041 9.4079 12.3041 9.25574C12.3041 7.91782 11.2156 6.8294 9.87777 6.8294C9.72556 6.8294 9.60217 6.70595 9.60217 6.5538C9.60217 6.40158 9.72562 6.2782 9.87777 6.2782C11.5196 6.2782 12.8554 7.61395 12.8554 9.25581C12.8553 9.40796 12.7319 9.53134 12.5797 9.53134Z" fill="white"/>
    <path d="M11.7313 9.53159C11.5791 9.53159 11.4557 9.40814 11.4557 9.25599C11.4557 8.38589 10.7477 7.67794 9.87765 7.67794C9.72544 7.67794 9.60205 7.55449 9.60205 7.40234C9.60205 7.25013 9.7255 7.12674 9.87765 7.12674C11.0517 7.12674 12.0069 8.08196 12.0069 9.25605C12.0069 9.4082 11.8835 9.53159 11.7313 9.53159Z" fill="white"/>
    <path d="M16.8456 7.89335C16.8456 5.13263 14.6077 2.89465 11.8469 2.89465H8.30789C5.46262 2.89465 3.15613 5.20115 3.15613 8.04643V10.2686C3.15613 12.4638 4.52965 14.3371 6.46369 15.0791V16.8246C6.46369 17.0314 6.59391 17.2189 6.78769 17.2913C6.84397 17.3123 6.90262 17.3225 6.96071 17.3225C7.10273 17.3225 7.24209 17.2619 7.33826 17.151L8.83952 15.4205H11.847C14.6077 15.4205 16.8457 13.1825 16.8457 10.4218V7.89335H16.8456ZM15.6819 10.4218C15.6819 12.5364 13.9616 14.2567 11.847 14.2567H9.18104L7.12678 16.6455C7.09994 16.6767 7.05651 16.6879 7.01793 16.6736C6.97935 16.6594 6.95369 16.6226 6.95369 16.5814C6.95369 16.0725 6.95369 14.9293 6.95369 14.0196C5.41938 13.4639 4.31991 11.9924 4.31991 10.2687V8.04649C4.31991 5.84747 6.10894 4.05843 8.30795 4.05843H11.8471C13.9616 4.05843 15.682 5.77876 15.682 7.89335V10.4218H15.6819Z" fill="white"/>
  </symbol>

  <symbol id="icon-tg" viewBox="0 0 20 20" width="20" height="20" fill="none">
    <path d="M10 20C15.5228 20 20 15.5228 20 10C20 4.47715 15.5228 0 10 0C4.47715 0 0 4.47715 0 10C0 15.5228 4.47715 20 10 20Z" fill="url(#paint0_linear_233_191)"/>
    <path d="M8.16671 14.5833C7.84274 14.5833 7.89779 14.461 7.78606 14.1525L6.83337 11.0171L14.1667 6.66666" fill="#C8DAEA"/>
    <path d="M8.16663 14.5833C8.41663 14.5833 8.52708 14.469 8.66663 14.3333L9.99996 13.0368L8.33679 12.0339" fill="#A9C9DD"/>
    <path d="M8.33664 12.0342L12.3666 15.0116C12.8265 15.2653 13.1584 15.1339 13.273 14.5846L14.9134 6.85437C15.0813 6.18102 14.6567 5.87562 14.2168 6.07535L4.58427 9.7896C3.92677 10.0533 3.9306 10.4202 4.46442 10.5836L6.93634 11.3551L12.6591 7.74471C12.9292 7.58089 13.1772 7.66896 12.9737 7.84958" fill="url(#paint1_linear_233_191)"/>
    <defs>
    <linearGradient id="paint0_linear_233_191" x1="7.501" y1="0.834" x2="2.501" y2="12.5" gradientUnits="userSpaceOnUse">
    <stop stop-color="#37AEE2"/>
    <stop offset="1" stop-color="#1E96C8"/>
    </linearGradient>
    <linearGradient id="paint1_linear_233_191" x1="8.74814" y1="10.6143" x2="9.81662" y2="14.0705" gradientUnits="userSpaceOnUse">
    <stop stop-color="#EFF7FC"/>
    <stop offset="1" stop-color="white"/>
    </linearGradient>
    </defs>
  </symbol>

  <symbol id="icon-arrow" viewBox="0 0 13 8" width="13" height="8">
    <path d="M0 0L6.5 8L13 0H0Z"/>
  </symbol>

</svg>